<svg width="25" height="16" viewBox="0 0 25 16" fill="none" xmlns="http://www.w3.org/2000/svg">
<path d="M15.7331 2.7876H9.35156V13.2106H15.7331V2.7876Z" fill="#FF5F00"/>
<path d="M10.0088 8.00007C10.008 6.99643 10.2355 6.00575 10.6741 5.10302C11.1127 4.20029 11.7509 3.40915 12.5404 2.78949C11.5626 2.02101 10.3882 1.54314 9.15167 1.41049C7.91509 1.27785 6.66614 1.49577 5.54756 2.03937C4.42898 2.58296 3.4859 3.43029 2.8261 4.48451C2.1663 5.53874 1.81641 6.75732 1.81641 8.00099C1.81641 9.24467 2.1663 10.4633 2.8261 11.5175C3.4859 12.5717 4.42898 13.419 5.54756 13.9626C6.66614 14.5062 7.91509 14.7241 9.15167 14.5915C10.3882 14.4588 11.5626 13.981 12.5404 13.2125C11.7507 12.5926 11.1123 11.8012 10.6737 10.8981C10.2351 9.99506 10.0077 9.00403 10.0088 8.00007Z" fill="#EB001B"/>
<path d="M22.6309 12.1077V11.8942H22.723V11.85H22.5039V11.8942H22.5904V12.1077H22.6309ZM23.0563 12.1077V11.85H22.99L22.9127 12.0341L22.8353 11.85H22.769V12.1077H22.8169V11.9126L22.8887 12.0801H22.9384L23.0102 11.9126V12.1077H23.0563Z" fill="#F79E1B"/>
<path d="M23.266 7.99999C23.266 9.24376 22.916 10.4624 22.2561 11.5167C21.5962 12.5709 20.6529 13.4183 19.5342 13.9618C18.4155 14.5053 17.1664 14.7231 15.9298 14.5902C14.6931 14.4574 13.5188 13.9793 12.541 13.2106C13.3302 12.5904 13.9682 11.799 14.407 10.8962C14.8457 9.99344 15.0736 9.00281 15.0736 7.99907C15.0736 6.99533 14.8457 6.0047 14.407 5.10192C13.9682 4.19914 13.3302 3.40778 12.541 2.78757C13.5188 2.01885 14.6931 1.54075 15.9298 1.40791C17.1664 1.27507 18.4155 1.49286 19.5342 2.03638C20.6529 2.57989 21.5962 3.42721 22.2561 4.48147C22.916 5.53573 23.266 6.75439 23.266 7.99815V7.99999Z" fill="#F79E1B"/>
</svg>
