<svg width="64" height="64" viewBox="0 0 64 64" fill="none" xmlns="http://www.w3.org/2000/svg">
<g clip-path="url(#clip0)">
<path d="M44.4755 50.3662C44.243 50.1337 43.9205 50 43.5905 50C43.2618 50 42.9393 50.1336 42.708 50.3662C42.4743 50.5987 42.3418 50.92 42.3418 51.25C42.3418 51.5788 42.4743 51.9013 42.708 52.1336C42.9405 52.3661 43.2618 52.5 43.5905 52.5C43.9205 52.5 44.2418 52.3663 44.4755 52.1336C44.708 51.9013 44.8418 51.5788 44.8418 51.25C44.8418 50.9212 44.708 50.5987 44.4755 50.3662Z" fill="#FC6C85"/>
<path d="M63.7512 25.5015C63.5152 25.1859 63.1442 25 62.7501 25H57.6519V1.25C57.6519 0.55975 57.0923 0 56.4019 0H33.4019C32.7116 0 32.1519 0.55975 32.1519 1.25V10.875H19.2611C18.5707 10.875 18.0111 11.4347 18.0111 12.125V25H13.3751C12.9809 25 12.6099 25.1859 12.3739 25.5015C12.1379 25.8171 12.0646 26.2256 12.1761 26.6036L19.5494 51.6036C19.7062 52.1351 20.1942 52.5 20.7483 52.5H38.0626C38.7529 52.5 39.3126 51.9403 39.3126 51.25C39.3126 50.5597 38.7529 50 38.0626 50H21.6831L15.0471 27.5H19.2612H41.7601H56.4021H61.0782L54.4422 50H49.8751C49.1847 50 48.6251 50.5597 48.6251 51.25C48.6251 51.9403 49.1847 52.5 49.8751 52.5H55.3767C55.9308 52.5 56.4188 52.1351 56.5756 51.6036L63.9489 26.6036C64.0604 26.2256 63.9872 25.8171 63.7512 25.5015ZM40.5099 25H20.5111V13.375H33.4019H40.5099V25ZM55.1521 25H43.0101V12.125C43.0101 11.4347 42.4504 10.875 41.7601 10.875H34.6521V2.5H55.1521V25Z" fill="#FC6C85"/>
<path d="M56.7626 54.75H18.194L7.835 19.6271C7.67825 19.0956 7.19025 18.7307 6.63613 18.7307H1.25C0.559625 18.7307 0 19.2905 0 19.9807C0 20.671 0.559625 21.2307 1.25 21.2307H5.7015L16.0606 56.3536C16.2174 56.8851 16.7054 57.25 17.2595 57.25H23.4615C23.1306 57.8867 22.9424 58.6091 22.9424 59.375C22.9424 61.9252 25.0171 64 27.5674 64C30.1176 64 32.1924 61.9252 32.1924 59.375C32.1924 58.6091 32.0041 57.8867 31.6733 57.25H41.9053C41.5744 57.8867 41.3861 58.6091 41.3861 59.375C41.3861 61.9252 43.4609 64 46.0111 64C48.5614 64 50.6361 61.9252 50.6361 59.375C50.6361 58.6091 50.4479 57.8867 50.117 57.25H56.7627C57.4531 57.25 58.0127 56.6902 58.0127 56C58.0127 55.3097 57.453 54.75 56.7626 54.75ZM27.5674 61.5C26.3956 61.5 25.4424 60.5467 25.4424 59.375C25.4424 58.2032 26.3956 57.25 27.5674 57.25C28.7391 57.25 29.6924 58.2032 29.6924 59.375C29.6924 60.5467 28.7391 61.5 27.5674 61.5ZM46.011 61.5C44.8393 61.5 43.886 60.5467 43.886 59.375C43.886 58.2032 44.8393 57.25 46.011 57.25C47.1828 57.25 48.136 58.2032 48.136 59.375C48.136 60.5467 47.1828 61.5 46.011 61.5Z" fill="#FC6C85"/>
<path d="M31.3955 31.4912C31.163 31.2586 30.8405 31.125 30.5105 31.125C30.1817 31.125 29.8592 31.2587 29.6267 31.4912C29.3942 31.7237 29.2617 32.0462 29.2617 32.375C29.2617 32.7038 29.3942 33.0263 29.6267 33.2586C29.8605 33.4913 30.1817 33.625 30.5105 33.625C30.8405 33.625 31.1617 33.4913 31.3955 33.2586C31.628 33.0263 31.7605 32.7038 31.7605 32.375C31.7605 32.0462 31.628 31.7237 31.3955 31.4912Z" fill="#FC6C85"/>
<path d="M25.2525 31.125H16.1768C15.4864 31.125 14.9268 31.6848 14.9268 32.375C14.9268 33.0652 15.4864 33.625 16.1768 33.625H25.2525C25.9429 33.625 26.5025 33.0652 26.5025 32.375C26.5025 31.6848 25.9429 31.125 25.2525 31.125Z" fill="#FC6C85"/>
</g>
<defs>
<clipPath id="clip0">
<rect width="64" height="64" fill="white"/>
</clipPath>
</defs>
</svg>
