<svg width="64" height="64" viewBox="0 0 64 64" fill="none" xmlns="http://www.w3.org/2000/svg">
<path d="M60.4656 35.2552C62.7799 31.5877 63.9996 27.3657 63.9996 22.9999C63.9996 10.3177 53.6819 0 40.9997 0C36.7517 0 32.6012 1.16762 28.9972 3.37663C28.4086 3.73738 28.2239 4.50688 28.5847 5.0955C28.9454 5.684 29.7149 5.86888 30.3036 5.508C33.5144 3.54012 37.2131 2.5 40.9999 2.5C52.3035 2.5 61.4997 11.6961 61.4997 22.9999C61.4997 27.0995 60.2939 31.0559 58.0122 34.4412C57.7096 34.8903 57.7355 35.4708 58.0469 35.8876L59.4166 40.9996L53.9186 39.5264C53.5585 39.4299 53.1741 39.499 52.8704 39.7152C49.3906 42.1912 45.2859 43.4999 40.9999 43.4999C38.5583 43.4999 36.1701 43.0734 33.8989 42.2342C32.3 36.3461 27.6541 31.7001 21.766 30.1014C20.9268 27.8301 20.5 25.4424 20.5 23C20.5 19.1712 21.5619 15.4374 23.5709 12.202C23.935 11.6155 23.7548 10.8449 23.1683 10.4806C22.582 10.1165 21.8111 10.2966 21.4469 10.8833C19.1917 14.515 17.9999 18.7049 17.9999 23C17.9999 25.2484 18.3226 27.4561 18.9589 29.585C18.3965 29.5295 17.8265 29.5004 17.2499 29.5004C7.73825 29.5004 0 37.2388 0 46.7503C0 50.1639 0.987 53.4408 2.85975 56.2655L1.522 61.2586C1.40638 61.69 1.52975 62.1502 1.8455 62.4661C2.16125 62.7819 2.62137 62.9051 3.05287 62.7896L8.16975 61.4185C10.8948 63.109 14.0218 64 17.2499 64C20.5355 64 23.7314 63.0725 26.492 61.3177C27.0746 60.9474 27.2466 60.1749 26.8764 59.5923C26.506 59.0096 25.7332 58.8376 25.1509 59.2079C22.7916 60.7075 20.0598 61.5 17.2499 61.5C14.3249 61.5 11.4978 60.6452 9.07438 59.028C8.77525 58.8284 8.40462 58.7671 8.057 58.8604L4.497 59.8143L5.42375 56.3556C5.52037 55.995 5.45075 55.61 5.23388 55.3061C3.44525 52.7991 2.49987 49.8405 2.49987 46.75C2.49987 38.6169 9.11675 32.0001 17.2498 32.0001C25.3828 32.0001 31.9998 38.617 31.9998 46.7501C31.9998 48.487 31.7011 50.1869 31.1121 51.8026C30.8756 52.4511 31.2098 53.1686 31.8584 53.4051C32.5069 53.6415 33.2245 53.3075 33.4609 52.6589C34.1502 50.768 34.4997 48.78 34.4997 46.7501C34.4997 46.1735 34.4707 45.6036 34.4152 45.0414C36.5443 45.6775 38.7523 45.9997 40.9999 45.9997C45.6092 45.9997 50.0324 44.6502 53.8306 42.0909L60.8609 43.9746C61.2925 44.0902 61.7525 43.9669 62.0684 43.6511C62.3841 43.3354 62.5075 42.8751 62.3919 42.4436L60.4656 35.2552Z" fill="#FC6C85"/>
<path d="M47.4435 25.6619H34.7119C34.0215 25.6619 33.4619 26.2215 33.4619 26.9119C33.4619 31.1113 36.8784 34.5277 41.0778 34.5277C45.2772 34.5277 48.6937 31.1113 48.6937 26.9119C48.6935 26.2215 48.1338 25.6619 47.4435 25.6619ZM41.0778 32.0276C38.688 32.0276 36.6757 30.3804 36.1164 28.1618H46.0393C45.4798 30.3804 43.4674 32.0276 41.0778 32.0276Z" fill="#FC6C85"/>
<path d="M50.8109 18.7274C50.4487 18.1395 49.6786 17.9568 49.0911 18.3188L48.9281 18.4194C48.3408 18.7823 48.1588 19.5525 48.5218 20.1398C48.7582 20.5225 49.1674 20.733 49.5863 20.733C49.8104 20.733 50.0374 20.6728 50.2422 20.5461L50.4023 20.4473C50.9901 20.0851 51.1731 19.3151 50.8109 18.7274Z" fill="#FC6C85"/>
<path d="M33.6352 18.7272C33.2729 18.1395 32.5027 17.9568 31.9153 18.3188L31.7523 18.4194C31.1649 18.7823 30.9831 19.5525 31.3461 20.1398C31.5824 20.5224 31.9917 20.7329 32.4106 20.7329C32.6347 20.7329 32.8617 20.6726 33.0664 20.546L33.2266 20.4471C33.8143 20.085 33.9973 19.315 33.6352 18.7272Z" fill="#FC6C85"/>
<path d="M11.2587 45.8661C11.0263 45.6336 10.7038 45.4999 10.375 45.4999C10.0462 45.4999 9.72388 45.6336 9.49125 45.8661C9.25875 46.0986 9.125 46.4211 9.125 46.7499C9.125 47.0786 9.25875 47.4011 9.49125 47.6336C9.72375 47.8661 10.0462 47.9999 10.375 47.9999C10.7038 47.9999 11.0263 47.8661 11.2587 47.6336C11.4913 47.4011 11.625 47.0786 11.625 46.7499C11.625 46.4211 11.4913 46.0986 11.2587 45.8661Z" fill="#FC6C85"/>
<path d="M18.1337 45.8661C17.9012 45.6336 17.5788 45.4999 17.25 45.4999C16.9212 45.4999 16.5989 45.6336 16.3662 45.8661C16.1337 46.0986 16 46.4211 16 46.7499C16 47.0786 16.1337 47.4011 16.3662 47.6336C16.5987 47.8661 16.9212 47.9999 17.25 47.9999C17.5788 47.9999 17.9012 47.8661 18.1337 47.6336C18.3662 47.4011 18.5 47.0786 18.5 46.7499C18.5 46.4211 18.3662 46.0986 18.1337 45.8661Z" fill="#FC6C85"/>
<path d="M25.0088 45.8661C24.7763 45.6336 24.4538 45.4999 24.125 45.4999C23.7962 45.4999 23.4739 45.6336 23.2412 45.8661C23.0087 46.0986 22.875 46.4211 22.875 46.7499C22.875 47.0786 23.0087 47.4011 23.2412 47.6336C23.4737 47.8661 23.7962 47.9999 24.125 47.9999C24.4538 47.9999 24.7763 47.8661 25.0088 47.6336C25.2413 47.4011 25.375 47.0786 25.375 46.7499C25.375 46.4211 25.2413 46.0986 25.0088 45.8661Z" fill="#FC6C85"/>
<path d="M30.6035 55.891C30.371 55.6585 30.0485 55.5247 29.7197 55.5247C29.3897 55.5247 29.0685 55.6585 28.836 55.891C28.6035 56.1235 28.4697 56.446 28.4697 56.7747C28.4697 57.1035 28.6035 57.426 28.836 57.6585C29.0685 57.891 29.3897 58.0247 29.7197 58.0247C30.0485 58.0247 30.371 57.891 30.6035 57.6585C30.836 57.426 30.9697 57.1035 30.9697 56.7747C30.9697 56.446 30.836 56.1235 30.6035 55.891Z" fill="#FC6C85"/>
<path d="M26.5468 6.69513C26.3143 6.46263 25.9918 6.33013 25.6631 6.33013C25.3331 6.33013 25.0118 6.46263 24.7793 6.69513C24.5456 6.92888 24.4131 7.25013 24.4131 7.58013C24.4131 7.90888 24.5456 8.23138 24.7793 8.46388C25.0118 8.69638 25.333 8.82888 25.6631 8.82888C25.9918 8.82888 26.3143 8.69638 26.5468 8.46388C26.7793 8.23138 26.9131 7.90888 26.9131 7.58013C26.9131 7.25013 26.7793 6.92888 26.5468 6.69513Z" fill="#FC6C85"/>
</svg>
