<svg width="64" height="64" viewBox="0 0 64 64" fill="none" xmlns="http://www.w3.org/2000/svg">
<g clip-path="url(#clip0)">
<path d="M62.9919 2.14687C62.9642 1.86837 62.8434 1.59987 62.6358 1.3905L62.6224 1.377C62.4119 1.16462 62.1397 1.04075 61.8569 1.01287C55.2123 -0.498502 48.2433 -0.307626 41.6912 1.567C35.0817 3.45787 29.0187 7.02687 24.1575 11.888L23.3253 12.7202H11.9254C11.5939 12.7202 11.276 12.852 11.0415 13.0864L0.366158 23.7616C-0.121967 24.2497 -0.121967 25.0414 0.366158 25.5296L5.44103 30.6046L4.30778 31.7379C3.81966 32.226 3.81966 33.0176 4.30778 33.5059L8.63978 37.8379L5.23891 43.8574C4.96278 44.3463 5.04641 44.9593 5.44341 45.3563L7.02378 46.9366C4.37528 49.8681 2.44878 53.4 1.42828 57.2267L0.0422829 62.423C-0.0727171 62.854 0.0506579 63.3136 0.366158 63.6291C0.603658 63.8665 0.922908 63.9953 1.25016 63.9953C1.35741 63.9953 1.46578 63.9815 1.57216 63.953L6.76841 62.567C10.595 61.5465 14.127 59.62 17.0587 56.9712L18.6358 58.5484C18.8765 58.789 19.1964 58.9145 19.52 58.9145C19.7303 58.9145 19.942 58.8615 20.1345 58.7529L26.1542 55.3521L30.4988 59.6968C30.7429 59.9408 31.0628 60.0629 31.3827 60.0629C31.7025 60.0629 32.0224 59.9408 32.2665 59.6968L33.3999 58.5634L38.4558 63.6194C38.6903 63.8537 39.0082 63.9855 39.3397 63.9855C39.6712 63.9855 39.989 63.8537 40.2235 63.6194L50.8988 52.9441C51.1332 52.7096 51.2649 52.3918 51.2649 52.0602V40.6982L52.1162 39.847C56.9772 34.9859 60.5462 28.9227 62.4372 22.3134C64.3124 15.7609 64.5033 8.7915 62.9919 2.14687ZM3.01803 24.6455L12.4433 15.2204H20.825L9.49666 26.5489C9.49641 26.5491 9.49603 26.5494 9.49578 26.5497C9.49553 26.5501 9.49528 26.5504 9.49491 26.5507L7.20903 28.8366L3.01803 24.6455ZM6.12428 60.1512L3.01453 60.9806L3.84391 57.8709C4.75128 54.4688 6.45416 51.3252 8.79366 48.7061L15.2888 55.2012C12.6698 57.541 9.52641 59.244 6.12428 60.1512ZM19.7322 56.1087L18.0662 54.4427C18.0374 54.4067 18.0068 54.3719 17.9735 54.3385C17.9403 54.3053 17.9053 54.2747 17.8694 54.246L9.74941 46.126C9.72066 46.09 9.69003 46.0551 9.65678 46.0218C9.62353 45.9885 9.58853 45.958 9.55266 45.9292L7.88328 44.26L10.4748 39.6726L24.3195 53.5174L19.7322 56.1087ZM48.7655 51.5425L39.3403 60.9678L35.1683 56.7956L48.7655 43.1985V51.5425ZM50.349 38.0793L32.5177 55.9105C32.5173 55.9109 32.5168 55.9113 32.5164 55.9116C32.516 55.912 32.5157 55.9125 32.5153 55.9129L31.3832 57.045L27.2509 52.9128L27.2508 52.9126L11.0795 36.7415C11.0793 36.7412 11.0789 36.741 11.0787 36.7406L6.95966 32.6217L10.3798 29.2016L27.063 45.8849C27.3072 46.1289 27.627 46.251 27.9469 46.251C28.2668 46.251 28.5867 46.1289 28.8308 45.8849C29.3189 45.3968 29.3189 44.6051 28.8308 44.1169L12.1477 27.4336L25.9255 13.6557C35.0973 4.48375 48.04 0.649873 60.6888 3.31612C63.3548 15.9649 59.5209 28.9072 50.349 38.0793Z" fill="#FC6C85"/>
<path d="M46.5798 25.4127C45.8895 25.4127 45.3296 25.9725 45.3296 26.6628L45.3291 26.7421C45.3235 27.4325 45.8786 27.9966 46.569 28.0022C46.5725 28.0022 46.576 28.0023 46.5795 28.0023C47.265 28.0023 47.8238 27.4491 47.8294 26.7622L47.8299 26.6628C47.8298 25.9725 47.2701 25.4127 46.5798 25.4127Z" fill="#FC6C85"/>
<path d="M45.9536 30.2425C45.3574 29.8941 44.5919 30.0952 44.2436 30.6914C42.8125 33.1414 40.1632 34.6632 37.3297 34.6632C32.9182 34.6632 29.3292 31.0742 29.3292 26.6627C29.3292 22.2512 32.9182 18.6622 37.3297 18.6622C39.7012 18.6622 41.9365 19.7055 43.4625 21.5244C43.9063 22.0536 44.6951 22.1221 45.2236 21.6786C45.7525 21.235 45.8216 20.4465 45.3778 19.9175C43.3757 17.5307 40.4424 16.1619 37.3297 16.1619C31.5397 16.1619 26.8291 20.8725 26.8291 26.6625C26.8291 32.4525 31.5397 37.1631 37.3297 37.1631C41.0484 37.1631 44.5249 35.1664 46.4024 31.9521C46.7507 31.3564 46.5496 30.5909 45.9536 30.2425Z" fill="#FC6C85"/>
<path d="M31.7627 47.0505C31.5302 46.8166 31.2089 46.6841 30.8789 46.6841C30.5502 46.6841 30.2277 46.8168 29.9953 47.0505C29.7628 47.2829 29.6289 47.6043 29.6289 47.9341C29.6289 48.2629 29.7627 48.5854 29.9953 48.8179C30.2277 49.0504 30.5502 49.1841 30.8789 49.1841C31.209 49.1841 31.5302 49.0505 31.7627 48.8179C31.9964 48.5841 32.1289 48.2629 32.1289 47.9341C32.1289 47.6054 31.9964 47.2829 31.7627 47.0505Z" fill="#FC6C85"/>
</g>
<defs>
<clipPath id="clip0">
<rect width="64" height="64" fill="white"/>
</clipPath>
</defs>
</svg>
