<svg width="64" height="64" viewBox="0 0 64 64" fill="none" xmlns="http://www.w3.org/2000/svg">
<path d="M46.0507 57.884C45.6738 57.3055 44.8995 57.1419 44.321 57.5188C40.3227 60.1231 35.6751 61.4997 30.881 61.4997C17.2844 61.4997 6.22265 50.4381 6.22265 36.8415C6.22265 31.9042 7.67627 27.1407 10.4266 23.0654C10.8129 22.4932 10.662 21.7163 10.0898 21.3301C9.51765 20.9438 8.74052 21.0947 8.35427 21.667C5.3244 26.1567 3.72266 31.4042 3.72266 36.8417C3.72266 44.0959 6.54765 50.9159 11.6771 56.0455C16.8066 61.1751 23.6267 64 30.881 64C36.1608 64 41.2801 62.4832 45.6856 59.6138C46.2642 59.237 46.4277 58.4625 46.0507 57.884Z" fill="#FC6C85"/>
<path d="M50.2502 54.0935C49.7572 53.6101 48.9658 53.618 48.4823 54.1109L48.4408 54.153C47.9545 54.643 47.9577 55.4345 48.4477 55.9209C48.6915 56.1628 49.0098 56.2835 49.3282 56.2835C49.6495 56.2835 49.9712 56.1603 50.2155 55.9139L50.2673 55.8614C50.7508 55.3684 50.7432 54.577 50.2502 54.0935Z" fill="#FC6C85"/>
<path d="M55.3135 20.4861C55.5576 20.7302 55.8775 20.8522 56.1973 20.8522C56.5172 20.8522 56.8371 20.7301 57.0812 20.4861L59.1635 18.4038C60.6471 16.92 60.6471 14.5056 59.1635 13.0217L54.701 8.55923C53.9821 7.84049 53.0263 7.44461 52.01 7.44461C50.9933 7.44461 50.0377 7.84049 49.319 8.55923L47.2367 10.6414C47.0023 10.8757 46.8706 11.1937 46.8706 11.5252C46.8706 11.8567 47.0023 12.1747 47.2367 12.4091L47.8278 13.0002L46.3301 14.498C43.154 12.292 39.5622 10.8042 35.7566 10.1184V8.00036H38.5067C39.197 8.00036 39.7567 7.44074 39.7567 6.75036V1.25C39.7567 0.559624 39.197 0 38.5067 0H23.2561C22.5659 0 22.0061 0.559624 22.0061 1.25V6.75024C22.0061 7.44061 22.5659 8.00023 23.2561 8.00023H26.0063V10.1209C22.4285 10.7696 19.0144 12.1321 15.9488 14.1536C15.3724 14.5337 15.2133 15.309 15.5933 15.8855C15.9735 16.4618 16.7489 16.621 17.3252 16.2408C21.3504 13.5865 26.0381 12.1835 30.8815 12.1835C44.4781 12.1835 55.5398 23.2451 55.5398 36.8418C55.5398 41.4527 54.2596 45.9489 51.8375 49.8439C51.473 50.4302 51.6526 51.2009 52.239 51.5657C52.4445 51.6934 52.6725 51.7543 52.8978 51.7543C53.3156 51.7543 53.7237 51.545 53.9606 51.1642C56.6295 46.8724 58.04 41.9198 58.04 36.8418C58.04 31.2402 56.3541 25.8985 53.2248 21.3931L54.7226 19.8953L55.3135 20.4861ZM33.2564 9.78711C32.4709 9.71948 31.679 9.68336 30.8813 9.68336C30.0851 9.68323 29.2929 9.71848 28.5061 9.78686V8.00036H33.2562V9.78711H33.2564ZM27.2563 5.50024H24.5061V2.50012H37.2566V5.50024H34.5065H27.2563ZM51.6911 19.3906C51.1835 18.7875 50.6491 18.2018 50.085 17.6377C49.521 17.0737 48.9353 16.5393 48.3321 16.0316L49.5955 14.7682L52.9543 18.1271L51.6911 19.3906ZM50.4796 12.1166C50.4793 12.1164 50.4791 12.1162 50.4788 12.116L49.8885 11.5256L51.0868 10.3274C51.3335 10.0807 51.6612 9.94498 52.01 9.94498C52.3586 9.94498 52.6865 10.0807 52.9331 10.3275L57.3956 14.7898C57.9046 15.2988 57.9046 16.1272 57.3956 16.6363L56.1973 17.8345L55.6081 17.2452C55.6075 17.2446 55.607 17.244 55.6063 17.2433L50.4796 12.1166Z" fill="#FC6C85"/>
<path d="M30.8818 19.124C30.1916 19.124 29.6318 19.6836 29.6318 20.374V23.1241C29.6318 23.8145 30.1915 24.3741 30.8818 24.3741C31.5721 24.3741 32.1318 23.8145 32.1318 23.1241V20.374C32.1318 19.6836 31.5721 19.124 30.8818 19.124Z" fill="#FC6C85"/>
<path d="M43.4101 24.3135C43.1776 24.081 42.8552 23.9472 42.5264 23.9472C42.1976 23.9472 41.8751 24.081 41.6427 24.3135C41.4102 24.546 41.2764 24.8685 41.2764 25.1972C41.2764 25.5272 41.4101 25.8485 41.6427 26.081C41.8751 26.3134 42.1976 26.4472 42.5264 26.4472C42.8552 26.4472 43.1776 26.3134 43.4101 26.081C43.6426 25.8485 43.7764 25.526 43.7764 25.1972C43.7764 24.8685 43.6427 24.546 43.4101 24.3135Z" fill="#FC6C85"/>
<path d="M47.3497 35.5916H44.5996C43.9094 35.5916 43.3496 36.1512 43.3496 36.8416C43.3496 37.5319 43.9094 38.0915 44.5996 38.0915H47.3497C48.04 38.0915 48.5997 37.5319 48.5997 36.8416C48.5997 36.1512 48.04 35.5916 47.3497 35.5916Z" fill="#FC6C85"/>
<path d="M43.4101 47.6018C43.1776 47.3693 42.8552 47.2355 42.5264 47.2355C42.1976 47.2355 41.8751 47.3693 41.6427 47.6018C41.4102 47.8343 41.2764 48.1568 41.2764 48.4855C41.2764 48.8155 41.4101 49.138 41.6427 49.3693C41.8751 49.603 42.1976 49.7355 42.5264 49.7355C42.8552 49.7355 43.1776 49.603 43.4101 49.3693C43.6426 49.1368 43.7764 48.8155 43.7764 48.4855C43.7764 48.1568 43.6427 47.8355 43.4101 47.6018Z" fill="#FC6C85"/>
<path d="M30.8818 49.309C30.1916 49.309 29.6318 49.8686 29.6318 50.559V53.3091C29.6318 53.9995 30.1916 54.5591 30.8818 54.5591C31.5721 54.5591 32.1318 53.9995 32.1318 53.3091V50.559C32.1318 49.8688 31.5721 49.309 30.8818 49.309Z" fill="#FC6C85"/>
<path d="M20.1211 47.6018C19.8884 47.3693 19.5661 47.2355 19.2373 47.2355C18.9086 47.2355 18.5861 47.3693 18.3537 47.6018C18.1212 47.8343 17.9873 48.1568 17.9873 48.4855C17.9873 48.8155 18.1211 49.1368 18.3537 49.3693C18.5861 49.603 18.9086 49.7355 19.2373 49.7355C19.5661 49.7355 19.8886 49.603 20.1211 49.3693C20.3536 49.1368 20.4873 48.8155 20.4873 48.4855C20.4874 48.1568 20.3537 47.8343 20.1211 47.6018Z" fill="#FC6C85"/>
<path d="M17.1642 35.5916H14.4141C13.7238 35.5916 13.1641 36.1512 13.1641 36.8416C13.1641 37.5319 13.7238 38.0915 14.4141 38.0915H17.1642C17.8544 38.0915 18.4142 37.5319 18.4142 36.8416C18.4143 36.1512 17.8546 35.5916 17.1642 35.5916Z" fill="#FC6C85"/>
<path d="M20.1211 24.3135C19.8886 24.081 19.5661 23.9472 19.2373 23.9472C18.9086 23.9472 18.5861 24.081 18.3537 24.3135C18.1212 24.546 17.9873 24.8685 17.9873 25.1972C17.9873 25.526 18.1211 25.8485 18.3537 26.081C18.5861 26.3134 18.9086 26.4472 19.2373 26.4472C19.5661 26.4472 19.8886 26.3134 20.1211 26.081C20.3536 25.8485 20.4873 25.526 20.4873 25.1972C20.4873 24.8685 20.3537 24.546 20.1211 24.3135Z" fill="#FC6C85"/>
<path d="M40.6417 27.0817C40.2347 26.6748 39.6027 26.5983 39.1104 26.8963L28.792 33.1431C28.6803 33.2064 28.5241 33.2983 28.4183 33.3816C27.3382 34.1529 26.6318 35.4159 26.6318 36.8414C26.6318 39.1852 28.5385 41.0917 30.8819 41.0917C32.3019 41.0917 33.5608 40.3909 34.3329 39.3177C34.4253 39.2033 34.5114 39.0532 34.5816 38.9295L40.827 28.6129C41.125 28.1208 41.0484 27.4887 40.6417 27.0817ZM32.4278 37.6595L32.3246 37.83C32.0088 38.2894 31.4802 38.5917 30.8818 38.5917C29.9169 38.5917 29.1318 37.8067 29.1318 36.8417C29.1318 36.2432 29.4342 35.7143 29.8938 35.3986L30.0633 35.2959C30.3077 35.1659 30.5861 35.0917 30.8817 35.0917C31.8467 35.0917 32.6318 35.8767 32.6318 36.8418C32.6318 37.137 32.5576 37.4153 32.4278 37.6595ZM34.3812 34.4332C34.0868 34.0068 33.7168 33.6368 33.2903 33.3424L36.0547 31.6689L34.3812 34.4332Z" fill="#FC6C85"/>
<path d="M30.8811 15.1873C18.9408 15.1873 9.22656 24.9013 9.22656 36.8417C9.22656 48.782 18.9407 58.4961 30.8811 58.4961C42.8216 58.4961 52.5356 48.782 52.5356 36.8417C52.5356 24.9013 42.8215 15.1873 30.8811 15.1873ZM30.8811 55.996C20.3194 55.996 11.7267 47.4034 11.7267 36.8417C11.7267 26.2799 20.3193 17.6873 30.8811 17.6873C41.4429 17.6873 50.0355 26.2799 50.0355 36.8417C50.0355 47.4034 41.4429 55.996 30.8811 55.996Z" fill="#FC6C85"/>
<path d="M13.5214 17.5618C13.2888 17.3293 12.9664 17.1956 12.6377 17.1956C12.3089 17.1956 11.9864 17.3293 11.7541 17.5618C11.5216 17.7943 11.3877 18.1168 11.3877 18.4456C11.3877 18.7756 11.5214 19.0968 11.7541 19.3293C11.9864 19.5618 12.3089 19.6956 12.6377 19.6956C12.9664 19.6956 13.2889 19.5618 13.5214 19.3293C13.7539 19.0968 13.8877 18.7743 13.8877 18.4456C13.8877 18.117 13.7541 17.7945 13.5214 17.5618Z" fill="#FC6C85"/>
</svg>
